<svg width="20" height="20" viewBox="0 0 20 20" fill="none" xmlns="http://www.w3.org/2000/svg">
<path fill-rule="evenodd" clip-rule="evenodd" d="M12.2562 11.0778C12.582 11.4037 12.582 11.9303 12.2562 12.2562C12.0937 12.4187 11.8803 12.5003 11.667 12.5003C11.4537 12.5003 11.2403 12.4187 11.0778 12.2562L10.0003 11.1787L8.92283 12.2562C8.76033 12.4187 8.54699 12.5003 8.33366 12.5003C8.12033 12.5003 7.90699 12.4187 7.74449 12.2562C7.41866 11.9303 7.41866 11.4037 7.74449 11.0778L8.82199 10.0003L7.74449 8.92283C7.41866 8.59699 7.41866 8.07033 7.74449 7.74449C8.07033 7.41866 8.59699 7.41866 8.92283 7.74449L10.0003 8.82199L11.0778 7.74449C11.4037 7.41866 11.9303 7.41866 12.2562 7.74449C12.582 8.07033 12.582 8.59699 12.2562 8.92283L11.1787 10.0003L12.2562 11.0778ZM10.0003 1.66699C5.40533 1.66699 1.66699 5.40533 1.66699 10.0003C1.66699 14.5953 5.40533 18.3337 10.0003 18.3337C14.5953 18.3337 18.3337 14.5953 18.3337 10.0003C18.3337 5.40533 14.5953 1.66699 10.0003 1.66699V1.66699Z" fill="#A8A8A8"/>
</svg>
