<svg width="173" height="24" viewBox="0 0 173 24" fill="none" xmlns="http://www.w3.org/2000/svg">
<path d="M6.456 4.92V9.464H13.784V13.688H6.456V18.616H14.744V23H0.984V0.535999H14.744V4.92H6.456ZM32.2805 19.032H23.8965L22.5525 23H16.8245L24.9525 0.535999H31.2885L39.4165 23H33.6245L32.2805 19.032ZM30.8725 14.808L28.0885 6.584L25.3365 14.808H30.8725ZM50.0183 23.224C48.3756 23.224 46.9036 22.9573 45.6023 22.424C44.3009 21.8907 43.2556 21.1013 42.4663 20.056C41.6983 19.0107 41.2929 17.752 41.2503 16.28H47.0743C47.1596 17.112 47.4476 17.752 47.9383 18.2C48.4289 18.6267 49.0689 18.84 49.8583 18.84C50.6689 18.84 51.3089 18.6587 51.7783 18.296C52.2476 17.912 52.4823 17.3893 52.4823 16.728C52.4823 16.1733 52.2903 15.7147 51.9063 15.352C51.5436 14.9893 51.0849 14.6907 50.5303 14.456C49.9969 14.2213 49.2289 13.9547 48.2263 13.656C46.7756 13.208 45.5916 12.76 44.6743 12.312C43.7569 11.864 42.9676 11.2027 42.3063 10.328C41.6449 9.45333 41.3143 8.312 41.3143 6.904C41.3143 4.81333 42.0716 3.18133 43.5863 2.008C45.1009 0.813333 47.0743 0.216 49.5063 0.216C51.9809 0.216 53.9756 0.813333 55.4903 2.008C57.0049 3.18133 57.8156 4.824 57.9223 6.936H52.0023C51.9596 6.21067 51.6929 5.64533 51.2023 5.24C50.7116 4.81333 50.0823 4.6 49.3142 4.6C48.6529 4.6 48.1196 4.78133 47.7143 5.144C47.3089 5.48533 47.1063 5.98667 47.1063 6.648C47.1063 7.37333 47.4476 7.93867 48.1302 8.344C48.8129 8.74933 49.8796 9.18667 51.3303 9.656C52.7809 10.1467 53.9543 10.616 54.8503 11.064C55.7676 11.512 56.5569 12.1627 57.2183 13.016C57.8796 13.8693 58.2103 14.968 58.2103 16.312C58.2103 17.592 57.8796 18.7547 57.2183 19.8C56.5783 20.8453 55.6396 21.6773 54.4023 22.296C53.1649 22.9147 51.7036 23.224 50.0183 23.224ZM80.8418 0.535999L73.0658 15.576V23H67.5938V15.576L59.8178 0.535999H66.0258L70.3778 9.944L74.6978 0.535999H80.8418ZM82.1185 11.736C82.1185 9.51733 82.5985 7.544 83.5585 5.816C84.5185 4.06667 85.8518 2.712 87.5585 1.752C89.2865 0.770665 91.2385 0.279999 93.4145 0.279999C96.0812 0.279999 98.3638 0.983999 100.263 2.392C102.161 3.8 103.431 5.72 104.071 8.152H98.0545C97.6065 7.21333 96.9665 6.49867 96.1345 6.008C95.3238 5.51733 94.3958 5.272 93.3505 5.272C91.6652 5.272 90.2998 5.85867 89.2545 7.032C88.2092 8.20533 87.6865 9.77333 87.6865 11.736C87.6865 13.6987 88.2092 15.2667 89.2545 16.44C90.2998 17.6133 91.6652 18.2 93.3505 18.2C94.3958 18.2 95.3238 17.9547 96.1345 17.464C96.9665 16.9733 97.6065 16.2587 98.0545 15.32H104.071C103.431 17.752 102.161 19.672 100.263 21.08C98.3638 22.4667 96.0812 23.16 93.4145 23.16C91.2385 23.16 89.2865 22.68 87.5585 21.72C85.8518 20.7387 84.5185 19.384 83.5585 17.656C82.5985 15.928 82.1185 13.9547 82.1185 11.736ZM121.406 19.032H113.022L111.678 23H105.95L114.078 0.535999H120.414L128.542 23H122.75L121.406 19.032ZM119.998 14.808L117.214 6.584L114.462 14.808H119.998ZM142.471 23L137.799 14.52H136.487V23H131.015V0.535999H140.199C141.97 0.535999 143.474 0.845332 144.711 1.464C145.97 2.08267 146.909 2.936 147.527 4.024C148.146 5.09067 148.455 6.28533 148.455 7.608C148.455 9.10133 148.029 10.4347 147.175 11.608C146.343 12.7813 145.106 13.6133 143.463 14.104L148.647 23H142.471ZM136.487 10.648H139.879C140.882 10.648 141.629 10.4027 142.119 9.912C142.631 9.42133 142.887 8.728 142.887 7.832C142.887 6.97867 142.631 6.30667 142.119 5.816C141.629 5.32533 140.882 5.08 139.879 5.08H136.487V10.648ZM160.306 0.535999C162.674 0.535999 164.744 1.00533 166.514 1.944C168.285 2.88267 169.65 4.20533 170.61 5.912C171.592 7.59733 172.082 9.54933 172.082 11.768C172.082 13.9653 171.592 15.9173 170.61 17.624C169.65 19.3307 168.274 20.6533 166.482 21.592C164.712 22.5307 162.653 23 160.306 23H151.89V0.535999H160.306ZM159.954 18.264C162.024 18.264 163.634 17.6987 164.786 16.568C165.938 15.4373 166.514 13.8373 166.514 11.768C166.514 9.69867 165.938 8.088 164.786 6.936C163.634 5.784 162.024 5.208 159.954 5.208H157.362V18.264H159.954Z" fill="#1E293B"/>
</svg>
