<svg width="20" height="20" viewBox="0 0 20 20" fill="none" xmlns="http://www.w3.org/2000/svg">
<path fill-rule="evenodd" clip-rule="evenodd" d="M7.08268 7.91699C7.08268 6.30866 8.39102 5.00033 9.99935 5.00033C11.6077 5.00033 12.916 6.30866 12.916 7.91699C12.916 9.23366 12.0327 10.3362 10.8327 10.6978V11.667C10.8327 12.1278 10.4602 12.5003 9.99935 12.5003C9.53852 12.5003 9.16602 12.1278 9.16602 11.667V10.0003C9.16602 9.53949 9.53852 9.16699 9.99935 9.16699C10.6885 9.16699 11.2493 8.60616 11.2493 7.91699C11.2493 7.22783 10.6885 6.66699 9.99935 6.66699C9.31018 6.66699 8.74935 7.22783 8.74935 7.91699C8.74935 8.37783 8.37685 8.75033 7.91602 8.75033C7.45518 8.75033 7.08268 8.37783 7.08268 7.91699ZM9.16602 14.167C9.16602 13.7062 9.53852 13.3337 9.99935 13.3337C10.4602 13.3337 10.8327 13.7062 10.8327 14.167C10.8327 14.6278 10.4602 15.0003 9.99935 15.0003C9.53852 15.0003 9.16602 14.6278 9.16602 14.167ZM9.99935 16.667C6.32352 16.667 3.33268 13.6762 3.33268 10.0003C3.33268 6.32449 6.32352 3.33366 9.99935 3.33366C13.6752 3.33366 16.666 6.32449 16.666 10.0003C16.666 13.6762 13.6752 16.667 9.99935 16.667ZM9.99935 1.66699C5.40435 1.66699 1.66602 5.40533 1.66602 10.0003C1.66602 14.5953 5.40435 18.3337 9.99935 18.3337C14.5943 18.3337 18.3327 14.5953 18.3327 10.0003C18.3327 5.40533 14.5943 1.66699 9.99935 1.66699Z" fill="#FBBF24"/>
</svg>
