<svg width="16" height="16" viewBox="0 0 16 16" fill="none" xmlns="http://www.w3.org/2000/svg">
<path fill-rule="evenodd" clip-rule="evenodd" d="M8.00033 7.33267C7.44899 7.33267 7.00033 6.88401 7.00033 6.33267C7.00033 5.78134 7.44899 5.33267 8.00033 5.33267C8.55166 5.33267 9.00033 5.78134 9.00033 6.33267C9.00033 6.88401 8.55166 7.33267 8.00033 7.33267ZM8.00033 3.99934C6.71366 3.99934 5.66699 5.04601 5.66699 6.33267C5.66699 7.61934 6.71366 8.66601 8.00033 8.66601C9.28699 8.66601 10.3337 7.61934 10.3337 6.33267C10.3337 5.04601 9.28699 3.99934 8.00033 3.99934ZM8.00033 13.097C6.88366 12.041 4.00033 9.07634 4.00033 6.61434C4.00033 4.43767 5.79433 2.66634 8.00033 2.66634C10.2063 2.66634 12.0003 4.43767 12.0003 6.61434C12.0003 9.07634 9.11699 12.041 8.00033 13.097ZM8.00033 1.33301C5.05966 1.33301 2.66699 3.70167 2.66699 6.61434C2.66699 10.2643 7.36633 14.3337 7.56633 14.505C7.69166 14.6123 7.84566 14.6663 8.00033 14.6663C8.15499 14.6663 8.30899 14.6123 8.43433 14.505C8.63433 14.3337 13.3337 10.2643 13.3337 6.61434C13.3337 3.70167 10.941 1.33301 8.00033 1.33301Z" fill="white"/>
</svg>
