<svg width="20" height="20" viewBox="0 0 20 20" fill="none" xmlns="http://www.w3.org/2000/svg">
<path fill-rule="evenodd" clip-rule="evenodd" d="M15.834 9.16634H10.834V4.16634C10.834 3.70551 10.4607 3.33301 10.0007 3.33301C9.54065 3.33301 9.16732 3.70551 9.16732 4.16634V9.16634H4.16732C3.70732 9.16634 3.33398 9.53884 3.33398 9.99967C3.33398 10.4605 3.70732 10.833 4.16732 10.833H9.16732V15.833C9.16732 16.2938 9.54065 16.6663 10.0007 16.6663C10.4607 16.6663 10.834 16.2938 10.834 15.833V10.833H15.834C16.294 10.833 16.6673 10.4605 16.6673 9.99967C16.6673 9.53884 16.294 9.16634 15.834 9.16634Z" fill="white"/>
</svg>
