<svg width="20" height="20" viewBox="0 0 20 20" fill="none" xmlns="http://www.w3.org/2000/svg">
<path d="M8.914 6.336C8.99194 6.25992 9.08402 6.19987 9.18506 6.15922C9.33688 6.09582 9.50406 6.07877 9.66555 6.11023C9.82704 6.14169 9.9756 6.22024 10.0925 6.336L15.054 11.2975C15.2103 11.4538 15.2981 11.6658 15.2981 11.8868C15.2981 12.1078 15.2103 12.3198 15.054 12.476C14.8978 12.6323 14.6858 12.7201 14.4648 12.7201C14.2438 12.7201 14.0318 12.6323 13.8755 12.476L10.34 8.94051C9.69412 8.17131 9.32128 8.1389 8.6783 8.92872L5.14277 12.4643C4.98649 12.6205 4.77452 12.7083 4.55351 12.7083C4.3325 12.7083 4.12054 12.6205 3.96426 12.4643C3.80798 12.308 3.72018 12.096 3.72018 11.875C3.72018 11.654 3.80798 11.442 3.96426 11.2857L8.914 6.336Z" fill="#F59E0B"/>
</svg>
