<svg width="20" height="20" viewBox="0 0 20 20" fill="none" xmlns="http://www.w3.org/2000/svg">
<path fill-rule="evenodd" clip-rule="evenodd" d="M12.2552 11.0778C12.581 11.4037 12.581 11.9303 12.2552 12.2562C12.0927 12.4187 11.8793 12.5003 11.666 12.5003C11.4527 12.5003 11.2393 12.4187 11.0768 12.2562L9.99935 11.1787L8.92185 12.2562C8.75935 12.4187 8.54602 12.5003 8.33268 12.5003C8.11935 12.5003 7.90602 12.4187 7.74352 12.2562C7.41768 11.9303 7.41768 11.4037 7.74352 11.0778L8.82102 10.0003L7.74352 8.92283C7.41768 8.59699 7.41768 8.07033 7.74352 7.74449C8.06935 7.41866 8.59602 7.41866 8.92185 7.74449L9.99935 8.82199L11.0768 7.74449C11.4027 7.41866 11.9293 7.41866 12.2552 7.74449C12.581 8.07033 12.581 8.59699 12.2552 8.92283L11.1777 10.0003L12.2552 11.0778ZM9.99935 1.66699C5.40435 1.66699 1.66602 5.40533 1.66602 10.0003C1.66602 14.5953 5.40435 18.3337 9.99935 18.3337C14.5943 18.3337 18.3327 14.5953 18.3327 10.0003C18.3327 5.40533 14.5943 1.66699 9.99935 1.66699Z" fill="#6D6D6D"/>
</svg>
