<svg width="20" height="20" viewBox="0 0 20 20" fill="none" xmlns="http://www.w3.org/2000/svg">
<path d="M11.086 13.664C11.0081 13.7401 10.916 13.8001 10.8149 13.8408C10.6631 13.9042 10.4959 13.9212 10.3344 13.8898C10.173 13.8583 10.0244 13.7798 9.90748 13.664L4.94595 8.70247C4.78967 8.54619 4.70187 8.33423 4.70188 8.11321C4.70187 7.8922 4.78967 7.68024 4.94595 7.52396C5.10223 7.36768 5.31419 7.27988 5.53521 7.27988C5.75622 7.27988 5.96818 7.36768 6.12446 7.52396L9.66 11.0595C10.3059 11.8287 10.6787 11.8611 11.3217 11.0713L14.8572 7.53574C15.0135 7.37946 15.2255 7.29167 15.4465 7.29167C15.6675 7.29167 15.8795 7.37946 16.0357 7.53574C16.192 7.69202 16.2798 7.90399 16.2798 8.125C16.2798 8.34601 16.192 8.55798 16.0357 8.71426L11.086 13.664Z" fill="#F59E0B"/>
</svg>
