<svg width="24" height="25" viewBox="0 0 24 25" fill="none" xmlns="http://www.w3.org/2000/svg">
<g clip-path="url(#clip0_18143_7228)">
<path d="M17.94 18.4303C16.2306 19.7333 14.1491 20.4551 12 20.4903C5 20.4903 1 12.4903 1 12.4903C2.24389 10.1722 3.96914 8.14687 6.06 6.55026M9.9 4.73026C10.5883 4.56914 11.2931 4.4886 12 4.49026C19 4.49026 23 12.4903 23 12.4903C22.393 13.6259 21.6691 14.695 20.84 15.6803M14.12 14.6103C13.8454 14.905 13.5141 15.1414 13.1462 15.3054C12.7782 15.4694 12.3809 15.5575 11.9781 15.5646C11.5753 15.5717 11.1752 15.4976 10.8016 15.3468C10.4281 15.1959 10.0887 14.9713 9.80385 14.6864C9.51897 14.4015 9.29439 14.0622 9.14351 13.6886C8.99262 13.3151 8.91853 12.915 8.92563 12.5122C8.93274 12.1094 9.02091 11.7121 9.18488 11.3441C9.34884 10.9761 9.58525 10.6449 9.88 10.3703" stroke="#9CA3AF" stroke-width="2" stroke-linecap="round" stroke-linejoin="round"/>
<path d="M1 1.49023L23 23.4902" stroke="#9CA3AF" stroke-width="2" stroke-linecap="round" stroke-linejoin="round"/>
</g>
<defs>
<clipPath id="clip0_18143_7228">
<rect width="24" height="24" fill="white" transform="translate(0 0.490234)"/>
</clipPath>
</defs>
</svg>
