<svg width="16" height="16" viewBox="0 0 16 16" fill="none" xmlns="http://www.w3.org/2000/svg">
<path fill-rule="evenodd" clip-rule="evenodd" d="M8.00033 7.33316C7.44899 7.33316 7.00033 6.8845 7.00033 6.33316C7.00033 5.78183 7.44899 5.33316 8.00033 5.33316C8.55166 5.33316 9.00033 5.78183 9.00033 6.33316C9.00033 6.8845 8.55166 7.33316 8.00033 7.33316M8.00033 3.99983C6.71366 3.99983 5.66699 5.0465 5.66699 6.33316C5.66699 7.61983 6.71366 8.6665 8.00033 8.6665C9.28699 8.6665 10.3337 7.61983 10.3337 6.33316C10.3337 5.0465 9.28699 3.99983 8.00033 3.99983M8.00033 13.0975C6.88366 12.0415 4.00033 9.07683 4.00033 6.61483C4.00033 4.43816 5.79433 2.66683 8.00033 2.66683C10.2063 2.66683 12.0003 4.43816 12.0003 6.61483C12.0003 9.07683 9.11699 12.0415 8.00033 13.0975M8.00033 1.3335C5.05966 1.3335 2.66699 3.70216 2.66699 6.61483C2.66699 10.2648 7.36633 14.3342 7.56633 14.5055C7.69166 14.6128 7.84566 14.6668 8.00033 14.6668C8.15499 14.6668 8.30899 14.6128 8.43433 14.5055C8.63433 14.3342 13.3337 10.2648 13.3337 6.61483C13.3337 3.70216 10.941 1.3335 8.00033 1.3335" fill="#9CA3AF"/>
</svg>
