<svg width="34" height="34" viewBox="0 0 34 34" fill="none" xmlns="http://www.w3.org/2000/svg">
<path opacity="0.3" d="M31.308 16.2913V17.8496C31.308 18.6996 30.7413 19.2663 30.033 19.4079L28.1913 19.6914C27.908 20.8247 27.483 21.9579 26.7747 22.9496L27.908 24.5079C28.333 25.0746 28.333 26.0662 27.7663 26.6329L26.633 27.7663C26.0663 28.333 25.2163 28.3329 24.508 27.9079L22.9497 26.7747C21.958 27.3414 20.8247 27.908 19.6913 28.1914L19.408 30.0329C19.2663 30.7413 18.558 31.308 17.8497 31.308H16.2913C15.4413 31.308 14.8747 30.7413 14.733 30.0329L14.4497 28.1914C13.3163 27.908 12.183 27.483 11.1913 26.7747L9.63301 27.9079C9.06634 28.3329 8.07467 28.333 7.50801 27.7663L6.37467 26.6329C5.80801 26.0662 5.808 25.2162 6.233 24.5079L7.36634 22.9496C6.79967 21.9579 6.233 20.8247 5.94967 19.6914L4.108 19.4079C3.39967 19.2663 2.83301 18.558 2.83301 17.8496V16.2913C2.83301 15.4413 3.39967 14.8747 4.108 14.733L5.94967 14.4496C6.233 13.3163 6.658 12.183 7.36634 11.1914L6.233 9.6329C5.808 9.06624 5.80801 8.07457 6.37467 7.5079L7.50801 6.37467C8.07467 5.80801 8.92467 5.80804 9.63301 6.23304L11.1913 7.36627C12.183 6.79961 13.3163 6.23294 14.4497 5.94961L14.733 4.10804C14.8747 3.39971 15.583 2.83301 16.2913 2.83301H17.8497C18.6997 2.83301 19.2663 3.39971 19.408 4.10804L19.6913 5.94961C20.8247 6.23294 21.958 6.65794 22.9497 7.36627L24.508 6.23304C25.0747 5.80804 26.0663 5.80801 26.633 6.37467L27.7663 7.5079C28.333 8.07457 28.333 8.92457 27.908 9.6329L26.7747 11.1914C27.3413 12.183 27.908 13.3163 28.1913 14.4496L30.033 14.733C30.7413 14.8747 31.308 15.583 31.308 16.2913ZM17.1413 12.183C14.4497 12.183 12.183 14.4496 12.183 17.1413C12.183 19.833 14.4497 22.0996 17.1413 22.0996C19.833 22.0996 22.0997 19.833 22.0997 17.1413C22.0997 14.4496 19.833 12.183 17.1413 12.183Z" fill="#6B7280"/>
<path d="M24.2253 17.1419C24.2253 21.1086 21.1086 24.2253 17.1419 24.2253C13.1753 24.2253 10.0586 21.1086 10.0586 17.1419C10.0586 13.1753 13.1753 10.0586 17.1419 10.0586C21.1086 10.0586 24.2253 13.1753 24.2253 17.1419ZM17.1419 14.3086C15.5836 14.3086 14.3086 15.5836 14.3086 17.1419C14.3086 18.7003 15.5836 19.9753 17.1419 19.9753C18.7003 19.9753 19.9753 18.7003 19.9753 17.1419C19.9753 15.5836 18.7003 14.3086 17.1419 14.3086Z" fill="#6B7280"/>
</svg>
