<svg width="30" height="30" viewBox="0 0 30 30" fill="none" xmlns="http://www.w3.org/2000/svg">
<path d="M22.5 2.5H12.5C10.4289 2.5 8.75 4.17893 8.75 6.25V18.75C8.75 20.8211 10.4289 22.5 12.5 22.5H22.5C24.5711 22.5 26.25 20.8211 26.25 18.75V6.25C26.25 4.17893 24.5711 2.5 22.5 2.5Z" fill="#FFE1BC"/>
<path d="M17.5 7.5H7.5C5.42893 7.5 3.75 9.17893 3.75 11.25V23.75C3.75 25.8211 5.42893 27.5 7.5 27.5H17.5C19.5711 27.5 21.25 25.8211 21.25 23.75V11.25C21.25 9.17893 19.5711 7.5 17.5 7.5Z" fill="#F59E0B"/>
</svg>
