<svg width="22" height="22" viewBox="0 0 22 22" fill="none" xmlns="http://www.w3.org/2000/svg">
<path d="M11.2362 15.6567C11.1192 15.6574 11.0032 15.635 10.8949 15.5908C10.7866 15.5465 10.6881 15.4813 10.6051 15.399L5.27172 10.0656C5.18841 9.98299 5.12228 9.88468 5.07715 9.77636C5.03202 9.66804 5.00879 9.55186 5.00879 9.43452C5.00879 9.31717 5.03202 9.20099 5.07715 9.09267C5.12228 8.98435 5.18841 8.88604 5.27172 8.8034C5.43827 8.63785 5.66356 8.54492 5.89839 8.54492C6.13322 8.54492 6.35851 8.63785 6.52505 8.8034L11.2362 13.5145L15.9384 8.8034C16.1049 8.63785 16.3302 8.54492 16.5651 8.54492C16.7999 8.54492 17.0252 8.63785 17.1917 8.8034C17.275 8.88604 17.3412 8.98435 17.3863 9.09267C17.4314 9.20099 17.4547 9.31717 17.4547 9.43452C17.4547 9.55186 17.4314 9.66804 17.3863 9.77636C17.3412 9.88468 17.275 9.98299 17.1917 10.0656L11.8584 15.399C11.6928 15.5632 11.4694 15.6558 11.2362 15.6567Z" fill="#A1A5B7"/>
</svg>
