<svg width="21" height="20" viewBox="0 0 21 20" fill="none" xmlns="http://www.w3.org/2000/svg">
<path fill-rule="evenodd" clip-rule="evenodd" d="M15.862 12.155C15.532 12.3025 14.8828 12.5 13.7786 12.5C12.842 12.5 12.0278 12.1808 11.1661 11.8433C10.1978 11.4642 9.19615 11.0717 7.94531 11.0717C7.06448 11.0717 6.38198 11.1775 5.86198 11.32V10V4.51333C6.19198 4.36583 6.84281 4.16667 7.94531 4.16667C8.88198 4.16667 9.69615 4.48583 10.5578 4.82333C11.5261 5.2025 12.5278 5.595 13.7786 5.595C14.5603 5.595 15.2586 5.51083 15.862 5.345V12.155ZM16.9186 3.9C16.5336 3.62167 16.0353 3.5425 15.5861 3.68917C15.1061 3.845 14.4811 3.92833 13.7786 3.92833C12.842 3.92833 12.0278 3.60917 11.1661 3.27167C10.1978 2.8925 9.19615 2.5 7.94531 2.5C5.53948 2.5 4.60781 3.29333 4.44531 3.45333C4.28531 3.60917 4.19531 3.82417 4.19531 4.0475V10V12.6192V16.6667C4.19531 17.1275 4.56781 17.5 5.02865 17.5C5.48948 17.5 5.86198 17.1275 5.86198 16.6667V13.085C6.19115 12.9383 6.83948 12.7383 7.94531 12.7383C8.88198 12.7383 9.69615 13.0575 10.5578 13.395C11.5261 13.7742 12.5278 14.1667 13.7786 14.1667C15.2861 14.1667 16.2145 13.8517 16.7295 13.5875C17.2228 13.3317 17.5286 12.835 17.5286 12.2908V5.08833C17.5286 4.62167 17.3011 4.1775 16.9186 3.9Z" fill="white"/>
</svg>
